<?xml version="1.0" standalone="no"?>
<!DOCTYPE svg PUBLIC "-//W3C//DTD SVG 20010904//EN"
 "http://www.w3.org/TR/2001/REC-SVG-20010904/DTD/svg10.dtd">
<svg version="1.0" xmlns="http://www.w3.org/2000/svg"
 width="308.000000pt" height="228.000000pt" viewBox="0 0 308.000000 228.000000"
 preserveAspectRatio="xMidYMid meet">

<g transform="translate(0.000000,228.000000) scale(0.100000,-0.100000)"
fill="#000000" stroke="none">
<path d="M1394 2254 c8 -16 33 -56 55 -89 l41 -60 -28 -8 c-40 -12 -169 1
-277 27 -52 13 -95 20 -95 16 0 -11 47 -59 94 -97 l40 -32 -30 -12 c-61 -24
-174 -33 -253 -21 -42 6 -87 15 -101 18 -23 7 -24 6 -10 -11 8 -10 39 -34 69
-53 51 -33 53 -36 36 -49 -25 -18 -73 -30 -170 -44 -73 -10 -117 -8 -185 8
-40 9 -14 -11 79 -60 l84 -45 -31 -16 c-84 -43 -287 -61 -359 -31 -33 14 -35
14 -22 -2 8 -9 47 -38 87 -63 l73 -47 -48 -21 c-69 -29 -198 -55 -244 -49 -21
3 -39 4 -39 2 0 -1 27 -21 61 -45 33 -23 58 -47 56 -53 -2 -6 -29 -24 -60 -40
-46 -24 -74 -31 -138 -35 -79 -5 -80 -5 -62 -24 31 -35 96 -75 153 -94 30 -10
57 -20 59 -21 3 -2 -6 -15 -20 -29 l-24 -26 42 7 41 6 -8 -38 c-4 -21 -11 -62
-14 -92 l-7 -53 43 6 c24 3 71 8 106 12 63 7 63 7 58 -17 -3 -13 -8 -58 -11
-99 -4 -41 -13 -90 -21 -109 -8 -18 -14 -35 -14 -37 0 -3 18 8 40 22 32 22 56
28 116 32 l76 5 -7 -74 c-5 -50 -15 -88 -31 -116 -31 -53 -30 -57 6 -38 16 8
73 19 127 24 54 5 107 12 117 16 14 6 17 5 12 -4 -5 -7 -12 -54 -17 -104 -4
-51 -11 -103 -15 -117 l-8 -25 30 20 c23 15 47 19 116 20 l88 0 0 -87 c0 -86
1 -90 51 -185 28 -54 54 -102 58 -106 5 -5 12 22 16 59 4 37 13 88 21 115 15
50 57 109 77 109 7 0 25 -25 41 -55 15 -30 32 -53 36 -50 4 2 10 35 13 72 8
98 64 233 96 233 4 0 18 -22 31 -50 13 -27 32 -58 42 -67 18 -16 19 -14 12 64
-5 64 -3 92 12 138 17 56 67 135 90 142 6 2 24 -27 40 -64 l29 -68 7 80 c5 44
15 99 24 122 15 42 50 93 62 93 4 0 18 -20 31 -45 13 -25 27 -45 31 -45 4 0
10 21 13 48 21 176 171 333 308 320 55 -6 106 -39 115 -75 4 -15 0 -39 -10
-60 -16 -34 -16 -35 1 -28 10 4 38 10 62 13 l44 5 -7 -45 c-4 -24 -3 -55 2
-68 l9 -24 6 25 c4 15 26 36 60 56 68 41 113 91 127 141 5 22 24 54 41 71 35
37 59 88 59 126 0 36 -38 33 -75 -5 -36 -37 -49 -38 -80 -3 -22 27 -24 27 -42
10 -27 -23 -33 -22 -33 11 0 51 -14 59 -58 34 -52 -29 -59 -28 -66 11 -3 18
-13 43 -22 56 -15 21 -18 21 -26 7 -5 -9 -18 -16 -28 -16 -15 0 -20 7 -20 29
0 37 -11 45 -43 30 -19 -9 -31 -8 -53 3 -37 17 -41 48 -11 83 l23 28 22 -37
c29 -49 46 -54 76 -19 l25 28 31 -37 c37 -44 58 -47 90 -13 13 14 27 25 31 25
5 0 16 -19 26 -41 l18 -42 32 27 c41 34 67 31 71 -9 5 -46 16 -49 76 -22 61
28 68 22 36 -31 -26 -42 -25 -42 9 -42 42 0 92 39 119 93 13 27 32 51 43 55
30 11 136 138 144 171 3 16 13 35 21 42 22 18 44 64 44 92 0 23 -4 24 -74 30
-42 4 -107 19 -154 36 -44 16 -127 39 -185 50 l-105 20 -54 54 c-49 50 -59 56
-128 71 -41 9 -141 35 -222 57 -170 46 -209 49 -298 25 -56 -16 -76 -17 -143
-7 -93 13 -212 52 -285 93 l-54 31 16 -29z m612 -105 c77 -15 91 -29 29 -29
-37 0 -46 -3 -38 -11 7 -7 67 -14 142 -18 72 -4 135 -11 141 -17 14 -14 -99
-66 -146 -67 -19 -1 -34 -5 -34 -9 0 -12 69 -9 135 7 90 22 139 19 171 -8 46
-40 29 -53 -83 -60 -54 -4 -129 -7 -168 -8 -38 -1 -81 -4 -95 -8 -22 -7 -21
-8 17 -14 31 -5 55 -20 95 -57 29 -27 65 -55 80 -61 15 -6 26 -14 23 -18 -2
-4 -55 -33 -117 -64 -63 -31 -128 -72 -145 -90 -29 -30 -88 -155 -79 -165 3
-2 21 30 41 72 27 57 47 85 78 107 60 44 195 107 244 115 24 3 40 10 37 15 -6
11 93 61 177 90 45 15 90 22 154 23 130 2 177 -15 248 -86 32 -32 63 -58 68
-58 14 0 -19 -72 -47 -100 -13 -14 -37 -41 -53 -60 -28 -34 -32 -35 -98 -35
-63 0 -77 5 -208 67 -77 37 -152 70 -167 74 -32 7 -36 20 -10 28 9 3 -8 4 -38
2 -101 -5 -203 -71 -320 -206 -50 -58 -51 -60 -44 -107 8 -51 8 -51 35 36 8
25 19 46 24 48 6 2 17 -16 25 -39 8 -23 21 -44 28 -46 11 -3 12 0 3 16 -6 11
-11 30 -11 42 0 19 6 16 53 -23 69 -59 213 -151 331 -212 104 -54 107 -58 80
-125 -12 -29 -29 -48 -61 -66 -48 -29 -61 -27 -44 4 14 26 14 62 1 62 -5 0
-10 -5 -10 -10 0 -16 -41 -28 -76 -23 -24 4 -33 12 -43 38 -35 99 -179 133
-288 69 -64 -37 -105 -83 -154 -171 l-44 -78 -3 60 c-1 33 3 82 10 110 12 44
18 52 65 79 52 30 84 73 82 113 0 12 -5 8 -14 -14 -19 -42 -60 -69 -131 -88
-32 -8 -65 -17 -74 -20 -23 -7 -15 145 11 204 28 64 25 76 -10 50 -27 -20
-139 -47 -198 -48 -20 -1 -21 2 -13 25 6 14 10 58 10 97 0 52 5 79 17 97 l17
24 -34 -21 c-26 -15 -57 -22 -120 -25 l-85 -4 -2 70 c-2 55 2 78 18 104 23 39
20 48 -9 33 -37 -19 -212 -6 -226 17 -2 4 16 38 41 75 49 74 50 98 3 52 -30
-29 -31 -29 -90 -17 -124 26 -166 62 -72 62 41 0 280 45 290 54 2 2 -18 11
-45 20 -26 9 -58 24 -71 34 -22 17 -16 18 168 14 104 -3 190 -2 190 2 0 3 -17
22 -37 42 -43 41 -42 41 77 9 77 -21 163 -16 255 14 74 24 69 23 141 10z m505
-196 c15 -23 28 -33 47 -34 33 -1 77 -17 50 -18 -9 -1 -54 -13 -98 -27 -45
-14 -84 -23 -87 -21 -2 3 0 15 6 26 9 16 18 19 44 15 30 -5 31 -5 13 10 -11 9
-20 30 -21 48 -1 18 -5 42 -10 53 -8 20 -8 20 14 1 12 -11 31 -35 42 -53z
m-219 -80 c72 -32 87 -48 59 -62 -49 -26 -103 -7 -166 59 l-40 42 45 -7 c25
-4 71 -18 102 -32z m103 27 c4 -6 2 -17 -5 -25 -9 -11 -17 -11 -48 2 -60 24
-61 33 -5 33 29 0 55 -5 58 -10z m-1435 -82 l-29 -53 -63 -3 c-59 -3 -146 13
-135 25 3 3 34 11 69 19 35 7 90 24 123 38 33 14 61 25 63 26 1 0 -11 -24 -28
-52z m190 30 c0 -7 -14 -31 -31 -53 l-30 -40 28 -3 c15 -1 39 -5 52 -8 l24 -5
-29 -31 c-41 -43 -68 -51 -151 -43 -73 7 -73 7 -67 33 11 46 44 116 66 139 18
19 32 23 80 23 40 0 58 -4 58 -12z m1885 -28 c3 -5 -1 -26 -10 -46 -12 -30
-18 -35 -28 -25 -9 11 -9 14 1 18 23 9 12 22 -20 25 -22 2 -34 9 -36 21 -3 14
4 17 42 17 25 0 47 -4 51 -10z m-2119 -101 c3 -6 -3 -24 -15 -40 l-22 -29 36
0 c19 0 35 -3 35 -7 0 -5 -16 -21 -35 -36 -19 -15 -35 -36 -35 -45 -1 -22 -20
-46 -43 -55 -18 -7 -117 10 -128 22 -4 3 10 44 30 91 33 75 41 86 71 97 44 15
97 16 106 2z m424 -6 c3 -3 5 -40 5 -83 0 -104 -8 -113 -118 -121 -45 -3 -84
-5 -85 -3 -2 1 4 40 14 86 13 63 25 90 46 111 25 26 31 27 80 21 29 -4 55 -9
58 -11z m-620 -32 c0 -5 -9 -31 -20 -57 l-20 -47 -59 6 c-59 7 -149 32 -165
47 -4 5 14 11 40 15 27 4 83 15 124 25 91 22 100 23 100 11z m1660 -22 c25 -6
75 -27 111 -48 37 -22 83 -44 103 -51 20 -6 36 -16 36 -21 0 -23 -114 3 -209
47 -21 10 -48 14 -71 11 -33 -4 -40 -1 -63 29 l-27 33 28 4 c15 2 32 5 37 5 6
1 30 -3 55 -9z m-1256 -76 c-14 -95 -43 -136 -107 -154 -42 -11 -135 -15 -144
-5 -11 11 49 144 76 170 27 25 52 32 134 35 l48 1 -7 -47z m1137 28 l24 -20
-28 -28 c-23 -24 -29 -26 -37 -13 -11 17 -13 64 -3 73 10 11 19 8 44 -12z
m144 -51 c8 -13 -5 -38 -23 -45 -16 -6 -52 26 -52 45 0 18 64 18 75 0z m-1741
-12 c-4 -7 -16 -24 -28 -37 l-21 -24 23 6 c25 6 29 -5 8 -23 -8 -6 -22 -34
-31 -61 -16 -47 -18 -49 -53 -49 -20 0 -54 3 -74 6 l-36 6 41 65 c33 51 54 72
96 94 57 31 87 37 75 17z m-135 -22 c-19 -13 -48 -42 -63 -65 -16 -23 -36 -41
-46 -41 -21 0 -117 33 -156 53 l-29 15 35 6 c19 3 60 8 90 11 30 4 80 15 110
25 81 27 102 25 59 -4z m1975 8 c20 -8 21 -34 1 -34 -8 0 -15 2 -15 4 0 2 -3
11 -6 20 -7 18 -4 19 20 10z m-964 -74 c0 -121 -16 -136 -168 -157 l-64 -9 7
70 c12 132 45 164 168 165 l57 1 0 -70z m1147 43 c7 -17 -29 -53 -53 -53 -18
0 -19 56 -1 63 25 11 48 7 54 -10z m109 -17 c10 -26 -46 -100 -62 -84 -1 2 4
25 13 51 15 46 38 61 49 33z m-1503 -78 c-4 -66 -10 -88 -27 -107 -28 -32 -89
-58 -154 -67 l-54 -7 7 69 c13 134 31 158 134 180 104 23 100 26 94 -68z
m-443 64 c0 -9 -25 -50 -44 -71 l-21 -24 22 6 c20 4 21 3 10 -15 -6 -11 -21
-36 -33 -56 -24 -44 -71 -64 -128 -57 -22 3 -43 8 -47 10 -11 8 49 167 74 193
19 20 29 22 94 20 40 -2 73 -4 73 -6z m1380 -42 c0 -23 -22 -26 -39 -6 -10 11
-8 15 6 19 31 8 33 7 33 -13z m-1870 -35 c0 -2 -19 -33 -42 -69 -24 -35 -48
-72 -53 -81 -10 -17 -14 -17 -65 -2 -30 9 -68 27 -84 40 l-30 24 70 23 c38 13
89 33 114 46 40 21 90 32 90 19z m677 -52 c-7 -78 -33 -141 -66 -158 -15 -7
-62 -22 -104 -33 l-77 -20 6 72 c11 140 25 155 154 175 41 7 76 14 79 16 12
12 13 1 8 -52z m1283 22 c0 -29 -7 -31 -39 -9 -18 13 -20 18 -10 25 27 17 49
10 49 -16z m-1943 -17 c-3 -10 19 -13 90 -14 51 0 98 -5 104 -11 7 -7 1 -21
-21 -46 -17 -20 -30 -40 -29 -44 1 -4 -13 -16 -32 -25 -34 -18 -139 -24 -186
-12 -20 6 -21 7 -7 48 8 23 28 59 45 79 31 38 45 47 36 25z m1365 -70 c-5 -95
-21 -119 -93 -135 -30 -6 -78 -12 -108 -12 -50 -1 -53 0 -48 22 3 12 9 48 12
80 6 46 13 61 31 74 36 23 104 42 159 42 l51 1 -4 -72z m698 22 c0 -14 -7 -20
-24 -20 -28 0 -54 25 -34 33 32 13 58 7 58 -13z m230 -13 c0 -28 -59 -97 -83
-97 -42 0 -39 13 15 62 56 50 68 56 68 35z m-1195 -64 c-8 -77 -21 -107 -62
-144 -24 -23 -39 -28 -102 -31 l-73 -4 7 61 c12 112 53 161 146 175 98 14 92
19 84 -57z m1055 32 c0 -18 -5 -25 -20 -25 -22 0 -26 20 -8 38 19 19 28 14 28
-13z m-1764 -67 c-4 -22 -12 -50 -18 -62 -12 -20 -14 -26 -17 -44 -3 -19 -56
-32 -131 -32 l-80 0 0 44 c0 50 13 92 38 119 13 15 31 17 115 16 l99 -1 -6
-40z m464 23 c0 -5 -7 -43 -14 -85 -23 -118 -41 -141 -116 -151 -25 -3 -60 -7
-77 -10 l-33 -4 0 84 c0 78 2 87 28 115 20 23 43 33 92 44 78 17 120 19 120 7z
m-744 -136 c-7 -29 -43 -42 -135 -50 l-73 -6 7 48 c12 79 19 86 79 80 28 -3
67 -3 86 1 33 8 35 7 38 -21 2 -17 1 -40 -2 -52z m464 -20 c0 -126 -23 -149
-156 -161 l-76 -7 7 44 c21 135 41 164 127 184 100 25 98 26 98 -60z m770 50
c0 -30 10 -32 32 -5 18 20 64 37 74 27 11 -10 -16 -74 -40 -96 -26 -25 -103
-51 -148 -51 -29 0 -29 0 -26 56 l3 56 45 18 c60 24 60 24 60 -5z m-150 -70
c0 -41 -6 -78 -16 -96 -17 -34 -12 -48 9 -31 7 7 31 19 52 27 l37 16 -6 -28
c-16 -61 -60 -85 -178 -96 l-58 -6 0 67 c0 120 25 172 95 197 64 23 65 22 65
-50z m-874 -67 c-15 -114 -47 -143 -161 -150 l-60 -3 -3 50 c-8 122 22 147
187 153 l44 2 -7 -52z m684 -37 c0 -123 -10 -139 -115 -168 -27 -8 -57 -17
-66 -20 -14 -4 -19 8 -29 65 -24 142 20 200 153 201 l57 1 0 -79z m411 0 c-27
-34 -65 -106 -81 -154 -7 -22 -16 -35 -20 -30 -16 17 -19 104 -4 152 13 46 19
52 67 74 51 23 52 23 55 4 2 -11 -6 -32 -17 -46z m-664 -20 c-3 -15 1 -56 9
-91 13 -56 13 -65 -1 -87 -9 -13 -22 -26 -28 -29 -23 -9 -182 -32 -189 -27
-10 5 -10 108 -2 152 13 64 83 107 178 110 37 1 38 0 33 -28z m-253 -141 c-14
-133 -24 -143 -134 -148 l-80 -4 0 48 c2 153 44 199 185 203 l40 1 -11 -100z
m766 41 c0 -19 -13 -44 -36 -72 -43 -52 -80 -122 -89 -172 -15 -79 -36 -16
-34 103 1 98 8 112 59 130 25 9 54 22 65 28 30 17 35 15 35 -17z m-200 -85 c0
-105 -45 -151 -182 -187 -40 -10 -73 -17 -75 -16 -1 2 -5 28 -8 58 -9 80 14
119 80 137 28 7 73 24 100 37 28 13 57 26 65 29 8 2 16 5 18 5 1 1 2 -28 2
-63z m-305 -123 c-13 -130 -52 -166 -187 -176 l-68 -4 0 66 c0 115 38 160 135
162 28 0 59 4 70 9 11 5 28 9 39 9 17 1 18 -5 11 -66z m305 -36 c0 -8 -18 -48
-40 -90 -22 -42 -46 -102 -53 -134 l-14 -58 -13 39 c-7 22 -13 73 -14 114 l-1
74 39 13 c22 8 48 23 60 34 24 24 36 27 36 8z m-185 -143 c6 -59 4 -70 -14
-93 -45 -55 -82 -117 -92 -155 -10 -35 -11 -37 -24 -20 -36 53 -47 191 -19
251 20 41 78 83 115 83 25 0 27 -3 34 -66z"/>
<path d="M1750 2079 c-11 -24 -15 -26 -49 -17 -29 7 -56 5 -118 -11 -45 -12
-96 -21 -113 -21 -29 0 -30 -1 -15 -16 9 -9 14 -18 12 -20 -2 -2 -38 -8 -80
-14 -43 -5 -91 -17 -108 -25 -26 -14 -29 -18 -17 -32 7 -9 38 -32 68 -51 30
-19 89 -67 130 -107 41 -39 88 -80 103 -90 44 -28 101 -34 176 -19 85 18 115
18 152 -2 29 -15 30 -14 20 4 -20 37 -64 46 -169 35 -53 -5 -112 -6 -129 -2
-21 4 -61 33 -109 78 -43 40 -98 84 -123 98 -25 14 -57 33 -70 41 l-25 15 24
19 c19 15 33 18 80 12 52 -6 65 -3 141 32 151 68 239 59 326 -34 38 -41 51
-50 46 -33 -3 13 -32 51 -63 85 -31 33 -62 70 -68 81 -10 19 -11 19 -22 -6z"/>
<path d="M1657 1963 c-4 -3 -7 -17 -7 -30 0 -22 -3 -24 -32 -18 -18 4 -43 13
-55 21 -30 19 -31 18 -25 -11 5 -29 7 -28 -36 -16 -34 10 -44 -2 -14 -17 28
-15 144 -24 136 -10 -7 11 7 9 66 -8 21 -5 23 -4 13 7 -7 7 -13 16 -13 21 0
10 72 -16 106 -38 27 -18 27 -18 15 3 -19 37 -12 38 23 4 24 -23 49 -36 83
-42 26 -5 57 -12 68 -15 16 -5 14 0 -9 22 -32 30 -25 41 17 25 41 -16 61 -54
48 -91 -10 -31 -10 -31 22 -28 28 3 32 7 35 35 5 55 -74 123 -145 123 -7 0
-13 -11 -13 -25 0 -14 -6 -25 -12 -25 -28 1 -92 47 -109 78 l-18 34 -16 -31
c-8 -17 -18 -31 -21 -31 -12 0 -51 24 -75 46 -14 14 -28 21 -32 17z"/>
<path d="M1500 1836 c0 -9 3 -15 8 -14 4 1 17 -4 30 -11 17 -9 27 -9 36 -2 19
16 41 5 70 -33 l25 -33 73 14 c77 14 118 11 157 -14 17 -11 22 -11 19 -2 -2 7
-20 21 -39 31 -29 17 -48 19 -121 14 -53 -3 -88 -1 -88 5 0 18 -65 49 -100 47
-19 -1 -43 2 -52 6 -13 6 -18 4 -18 -8z"/>
<path d="M2575 1811 c-12 -5 14 -10 71 -14 111 -7 154 -24 218 -85 38 -36 44
-40 28 -16 -34 50 -98 102 -139 113 -43 12 -148 13 -178 2z"/>
<path d="M2450 1768 c-34 -12 -33 -12 42 -19 83 -7 79 -5 194 -102 75 -63 129
-86 160 -69 16 10 13 11 -20 12 -34 0 -45 7 -110 74 -39 40 -86 81 -104 90
-43 22 -118 28 -162 14z"/>
<path d="M1807 1620 c-20 -21 -38 -30 -60 -30 -23 0 -28 -3 -19 -12 31 -31
122 4 122 47 0 33 -9 31 -43 -5z"/>
<path d="M2085 1360 c4 -14 8 -26 9 -27 8 -10 296 -175 322 -183 78 -26 65 -3
-24 43 -133 69 -263 145 -291 170 l-23 22 7 -25z"/>
</g>
</svg>
